<svg width="355" height="220" viewBox="0 0 355 220" fill="none" xmlns="http://www.w3.org/2000/svg">
<rect width="355" height="220" fill="#FFECD1"/>
<path d="M173.922 111.235V139.343L89 184.87V156.762L173.922 111.235Z" fill="#1D1D1B"/>
<path d="M173.922 74.3786V102.487L89 148.013V119.905L173.922 74.3786Z" fill="#1D1D1B"/>
<path d="M173.922 33V61.1079L89 106.634V78.5264L173.922 33Z" fill="#1D1D1B"/>
<path d="M266 119.984V148.092L173.922 139.343V111.235L266 119.984Z" fill="#1D1D1B"/>
<path d="M266 83.1273V111.235L173.922 102.487V74.3786L266 83.1273Z" fill="#1D1D1B"/>
<path d="M266 41.7486V69.8566L173.922 61.1079V33L266 41.7486Z" fill="#1D1D1B"/>
<path d="M181.392 165.85V194L89 185.241V157.089L181.392 165.85Z" fill="#1D1D1B"/>
<path d="M181.483 128.939V157.089L89 148.327V120.177L181.483 128.939Z" fill="#1D1D1B"/>
<path d="M181.392 87.499V115.649L89 106.887V78.7374L181.392 87.499Z" fill="#1D1D1B"/>
<path d="M265.909 120.177V148.327L181.392 194V165.85L265.909 120.177Z" fill="#1D1D1B"/>
<path d="M266 83.2662V111.43L181.483 157.089V128.939L266 83.2662Z" fill="#1D1D1B"/>
<path d="M265.909 41.8261V69.9757L181.392 115.649V87.499L265.909 41.8261Z" fill="#1D1D1B"/>
<path d="M181.392 165.85V194L89 185.241V157.089L181.392 165.85Z" fill="#1D1D1B"/>
<path d="M181.483 128.939V157.089L89 148.327V120.177L181.483 128.939Z" fill="#1D1D1B"/>
<path d="M181.392 87.499V115.649L89 106.887V78.7374L181.392 87.499Z" fill="#1D1D1B"/>
<path d="M265.909 120.177V148.327L181.392 194V165.85L265.909 120.177Z" fill="#1D1D1B"/>
<path d="M266 83.2662V111.43L181.483 157.089V128.939L266 83.2662Z" fill="#1D1D1B"/>
<path d="M265.909 41.8261V69.9757L181.392 115.649V87.499L265.909 41.8261Z" fill="#1D1D1B"/>
<path fill-rule="evenodd" clip-rule="evenodd" d="M89 185.241V157.089L181.392 165.85L265.909 120.177V148.327L181.392 194L89 185.241ZM89 148.327V120.177L181.483 128.939L266 83.2662V111.43L181.483 157.089L89 148.327ZM89 106.887V78.7373L181.392 87.499L265.909 41.8261V69.9757L181.392 115.649L89 106.887ZM182.433 199.121L84 189.79V114.681L180.443 123.818L271 74.8808V114.411L270.909 114.461V151.308L182.433 199.121ZM182.433 120.77L84 111.435V73.2408L180.352 82.3779L270.909 33.4407V72.9571L182.433 120.77Z" fill="#FFECD1"/>
</svg>
