<svg width="1151" height="1047" viewBox="0 0 1151 1047" fill="none" xmlns="http://www.w3.org/2000/svg">
<path d="M552.235 508.772V691.561L0 987.624V804.835L552.235 508.772Z" fill="#5B1F0B"/>
<path d="M552.235 269.09V451.878L0 747.942V565.153L552.235 269.09Z" fill="#5B1F0B"/>
<path d="M552.235 0V182.789L0 478.852V296.063L552.235 0Z" fill="#5B1F0B"/>
<path d="M1151 565.665V748.454L552.235 691.561V508.772L1151 565.665Z" fill="#76280E"/>
<path d="M1151 325.983V508.772L552.235 451.878V269.09L1151 325.983Z" fill="#76280E"/>
<path d="M1151 56.8933V239.682L552.235 182.789V0L1151 56.8933Z" fill="#76280E"/>
<path d="M600.811 863.94V1047L0 990.04V806.962L600.811 863.94Z" fill="#C84418"/>
<path d="M601.403 623.902V806.962L0 749.984V566.924L601.403 623.902Z" fill="#C84418"/>
<path d="M600.811 354.413V537.473L0 480.495V297.435L600.811 354.413Z" fill="#C84418"/>
<path d="M1150.41 566.924V749.984L600.811 1047V863.94L1150.41 566.924Z" fill="#9B3512"/>
<path d="M1151 326.886V510.036L601.403 806.962V623.902L1151 326.886Z" fill="#9B3512"/>
<path d="M1150.41 57.397V240.457L600.811 537.473V354.413L1150.41 57.397Z" fill="#9B3512"/>
</svg>
