<svg width="354" height="220" viewBox="0 0 354 220" fill="none" xmlns="http://www.w3.org/2000/svg">
<path d="M0 0H354V220H0V0Z" fill="#1D1D1B"/>
<path d="M168.922 107.235V135.343L84 180.87V152.762L168.922 107.235Z" fill="#FFECD1"/>
<path d="M168.922 70.3786V98.4866L84 144.013V115.905L168.922 70.3786Z" fill="#FFECD1"/>
<path d="M168.922 29V57.1079L84 102.634V74.5264L168.922 29Z" fill="#FFECD1"/>
<path d="M261 115.984V144.092L168.922 135.343V107.235L261 115.984Z" fill="#FFECD1"/>
<path d="M261 79.1273V107.235L168.922 98.4866V70.3786L261 79.1273Z" fill="#FFECD1"/>
<path d="M261 37.7486V65.8566L168.922 57.1079V29L261 37.7486Z" fill="#FFECD1"/>
<path d="M176.392 161.85V190L84 181.241V153.089L176.392 161.85Z" fill="#FFECD1"/>
<path d="M176.483 124.939V153.089L84 144.327V116.177L176.483 124.939Z" fill="#FFECD1"/>
<path d="M176.392 83.499V111.649L84 102.887V74.7374L176.392 83.499Z" fill="#FFECD1"/>
<path d="M260.909 116.177V144.327L176.392 190V161.85L260.909 116.177Z" fill="#FFECD1"/>
<path d="M261 79.2662V107.43L176.483 153.089V124.939L261 79.2662Z" fill="#FFECD1"/>
<path d="M260.909 37.8261V65.9757L176.392 111.649V83.499L260.909 37.8261Z" fill="#FFECD1"/>
<mask id="path-3-outside-1_12_19" maskUnits="userSpaceOnUse" x="79" y="28.8261" width="187" height="167" fill="black">
<rect fill="white" x="79" y="28.8261" width="187" height="167"/>
<path d="M176.392 161.85V190L84 181.241V153.089L176.392 161.85Z"/>
<path d="M176.483 124.939V153.089L84 144.327V116.177L176.483 124.939Z"/>
<path d="M176.392 83.499V111.649L84 102.887V74.7374L176.392 83.499Z"/>
<path d="M260.909 116.177V144.327L176.392 190V161.85L260.909 116.177Z"/>
<path d="M261 79.2662V107.43L176.483 153.089V124.939L261 79.2662Z"/>
<path d="M260.909 37.8261V65.9757L176.392 111.649V83.499L260.909 37.8261Z"/>
</mask>
<path d="M176.392 161.85V190L84 181.241V153.089L176.392 161.85Z" fill="#FFECD1"/>
<path d="M176.483 124.939V153.089L84 144.327V116.177L176.483 124.939Z" fill="#FFECD1"/>
<path d="M176.392 83.499V111.649L84 102.887V74.7374L176.392 83.499Z" fill="#FFECD1"/>
<path d="M260.909 116.177V144.327L176.392 190V161.85L260.909 116.177Z" fill="#FFECD1"/>
<path d="M261 79.2662V107.43L176.483 153.089V124.939L261 79.2662Z" fill="#FFECD1"/>
<path d="M260.909 37.8261V65.9757L176.392 111.649V83.499L260.909 37.8261Z" fill="#FFECD1"/>
<path d="M173.892 161.85V190H178.892V161.85H173.892ZM173.983 124.939V153.089H178.983V124.939H173.983ZM173.892 83.499V111.649H178.892V83.499H173.892ZM176.392 161.85L175.92 166.828L177.433 166.971L178.769 166.249L176.392 161.85ZM176.392 190L175.92 194.978L177.433 195.121L178.769 194.399L176.392 190ZM84 181.241H79V185.79L83.5281 186.219L84 181.241ZM84 153.089L84.472 148.111L79 147.592V153.089H84ZM176.483 124.939L176.012 129.917L177.524 130.06L178.861 129.338L176.483 124.939ZM176.483 153.089L176.012 158.066L177.524 158.21L178.86 157.488L176.483 153.089ZM84 144.327H79V148.876L83.5284 149.305L84 144.327ZM84 116.177L84.4716 111.2L79 110.681V116.177H84ZM176.392 83.499L175.92 88.4766L177.433 88.6201L178.769 87.8978L176.392 83.499ZM176.392 111.649L175.92 116.626L177.433 116.77L178.769 116.047L176.392 111.649ZM84 102.887H79V107.435L83.528 107.865L84 102.887ZM84 74.7374L84.472 69.7597L79 69.2408V74.7374H84ZM260.909 116.177H265.909V107.792L258.532 111.779L260.909 116.177ZM260.909 144.327L263.286 148.726L265.909 147.308V144.327H260.909ZM261 79.2662H266V70.8808L258.623 74.8674L261 79.2662ZM261 107.43L263.377 111.829L266 110.411V107.43H261ZM260.909 37.8261H265.909V29.4407L258.532 33.4273L260.909 37.8261ZM260.909 65.9757L263.286 70.3745L265.909 68.9571V65.9757H260.909ZM176.864 185.022L84.4719 176.263L83.5281 186.219L175.92 194.978L176.864 185.022ZM89 181.241V153.089H79V181.241H89ZM83.528 158.066L175.92 166.828L176.864 156.873L84.472 148.111L83.528 158.066ZM176.955 148.111L84.4716 139.349L83.5284 149.305L176.012 158.066L176.955 148.111ZM89 144.327V116.177H79V144.327H89ZM83.5284 121.155L176.012 129.917L176.955 119.961L84.4716 111.2L83.5284 121.155ZM176.864 106.671L84.472 97.9093L83.528 107.865L175.92 116.626L176.864 106.671ZM89 102.887V74.7374H79V102.887H89ZM83.528 79.715L175.92 88.4766L176.864 78.5213L84.472 69.7597L83.528 79.715ZM255.909 116.177V144.327H265.909V116.177H255.909ZM258.532 139.928L174.015 185.601L178.769 194.399L263.286 148.726L258.532 139.928ZM178.769 166.249L263.286 120.576L258.532 111.779L174.015 157.452L178.769 166.249ZM256 79.2662V107.43H266V79.2662H256ZM258.623 103.031L174.107 148.69L178.86 157.488L263.377 111.829L258.623 103.031ZM178.861 129.338L263.377 83.665L258.623 74.8674L174.106 120.54L178.861 129.338ZM255.909 37.8261V65.9757H265.909V37.8261H255.909ZM258.532 61.5769L174.015 107.25L178.769 116.047L263.286 70.3745L258.532 61.5769ZM178.769 87.8978L263.286 42.2249L258.532 33.4273L174.015 79.1002L178.769 87.8978Z" fill="#1D1D1B" mask="url(#path-3-outside-1_12_19)"/>
</svg>
