<svg width="772" height="703" viewBox="0 0 772 703" fill="none" xmlns="http://www.w3.org/2000/svg">
<path d="M370.557 337.723V459.059L4 655.586V534.251L370.557 337.723Z" fill="#2E0F05"/>
<path d="M370.557 178.622V299.958L4 496.485V375.149L370.557 178.622Z" fill="#2E0F05"/>
<path d="M370.557 0V121.335L4 317.863V196.527L370.557 0Z" fill="#2E0F05"/>
<path d="M768 375.489V496.825L370.557 459.059V337.723L768 375.489Z" fill="#491909"/>
<path d="M768 216.388V337.723L370.557 299.958V178.622L768 216.388Z" fill="#491909"/>
<path d="M768 37.7659V159.101L370.557 121.335V0L768 37.7659Z" fill="#491909"/>
<path d="M402.801 573.484V695L4 657.19V535.663L402.801 573.484Z" fill="#9B3512"/>
<path d="M403.194 414.147V535.663L4 497.841V376.325L403.194 414.147Z" fill="#9B3512"/>
<path d="M402.801 235.26V356.775L4 318.953V197.438L402.801 235.26Z" fill="#9B3512"/>
<path d="M767.607 376.325V497.841L402.801 695V573.484L767.607 376.325Z" fill="#6D250D"/>
<path d="M768 216.988V338.563L403.194 535.663V414.147L768 216.988Z" fill="#6D250D"/>
<path d="M767.607 38.1002V159.616L402.801 356.775V235.26L767.607 38.1002Z" fill="#6D250D"/>
</svg>
