<?xml version="1.0" encoding="UTF-8"?><svg version="1.1" width="1024px" height="1024px" viewBox="0 0 1024.0 1024.0" xmlns="http://www.w3.org/2000/svg" xmlns:xlink="http://www.w3.org/1999/xlink"><defs><clipPath id="i0"><path d="M491,0 L491,164.746094 L0,437.197308 L0,269.242188 L491,0 Z"></path></clipPath><clipPath id="i1"><path d="M0,0 L533,48.9559979 L533,217.240415 L0,164.746094 L0,0 Z"></path></clipPath><clipPath id="i2"><path d="M0,0 L535,52.71875 L535,220.289062 L0,168.161097 L0,0 Z"></path></clipPath><clipPath id="i3"><path d="M489,0 L489,168.145394 L0,440.578125 L0,273.007812 L489,0 Z"></path></clipPath></defs><g transform="translate(0.0 30.0)"><g transform="translate(0.0 474.46875)"><g transform=""><g clip-path="url(#i0)"><polygon points="0,0 491,0 491,437.197308 0,437.197308 0,0" stroke="none" fill="#321106"></polygon></g></g><g transform="translate(491.0 0.0)"><g clip-path="url(#i1)"><polygon points="0,0 533,0 533,217.240415 0,217.240415 0,0" stroke="none" fill="#5F200B"></polygon></g></g><g transform="translate(0.0 269.2421875)"><g clip-path="url(#i2)"><polygon points="0,0 535,0 535,220.289062 0,220.289062 0,0" stroke="none" fill="#BA3F16"></polygon></g></g><g transform="translate(535.0 48.953125)"><g clip-path="url(#i3)"><polygon points="0,0 489,0 489,440.578125 0,440.578125 0,0" stroke="none" fill="#8D3010"></polygon></g></g></g><g transform="translate(0.0 237.234375)"><g transform=""><g clip-path="url(#i0)"><polygon points="0,0 491,0 491,437.197308 0,437.197308 0,0" stroke="none" fill="#321106"></polygon></g></g><g transform="translate(491.0 0.0)"><g clip-path="url(#i1)"><polygon points="0,0 533,0 533,217.240415 0,217.240415 0,0" stroke="none" fill="#5F200B"></polygon></g></g><g transform="translate(0.0 269.2421875)"><g clip-path="url(#i2)"><polygon points="0,0 535,0 535,220.289062 0,220.289062 0,0" stroke="none" fill="#BA3F16"></polygon></g></g><g transform="translate(535.0 48.953125)"><g clip-path="url(#i3)"><polygon points="0,0 489,0 489,440.578125 0,440.578125 0,0" stroke="none" fill="#8D3010"></polygon></g></g></g><g transform=""><g clip-path="url(#i0)"><polygon points="0,0 491,0 491,437.197308 0,437.197308 0,0" stroke="none" fill="#321106"></polygon></g></g><g transform="translate(491.0 0.0)"><g clip-path="url(#i1)"><polygon points="0,0 533,0 533,217.240415 0,217.240415 0,0" stroke="none" fill="#5F200B"></polygon></g></g><g transform="translate(0.0 269.2421875)"><g clip-path="url(#i2)"><polygon points="0,0 535,0 535,220.289062 0,220.289062 0,0" stroke="none" fill="#BA3F16"></polygon></g></g><g transform="translate(535.0 48.953125)"><g clip-path="url(#i3)"><polygon points="0,0 489,0 489,440.578125 0,440.578125 0,0" stroke="none" fill="#8D3010"></polygon></g></g></g></svg>