<?xml version="1.0" encoding="UTF-8"?><svg version="1.1" width="1024px" height="1024px" viewBox="0 0 1024.0 1024.0" xmlns="http://www.w3.org/2000/svg" xmlns:xlink="http://www.w3.org/1999/xlink"><defs><clipPath id="i0"><path d="M1024,0 L1024,168.306402 L535,441 L0,388.822119 L0,220.5 L535,273.269231 L1024,0 Z"></path></clipPath><clipPath id="i1"><path d="M49,0 L141.818518,8.53353527 L93,35.8076923 L0,27.3269231 L49,0 Z"></path></clipPath><clipPath id="i2"><path d="M415,0 L872.878463,42.0963629 L617.225194,184.839755 L415,164.903846 L255.749378,253.355112 L0,228.038462 L414.999,0.001 Z"></path></clipPath></defs><g transform="translate(0.0 30.0)"><g transform="translate(0.0 523.0)"><g clip-path="url(#i0)"><polygon points="0,0 1024,0 1024,441 0,441 0,0" stroke="none" fill="#FFFFFF"></polygon></g></g><g transform="translate(0.0 286.0)"><g clip-path="url(#i0)"><polygon points="0,0 1024,0 1024,441 0,441 0,0" stroke="none" fill="#FFFFFF"></polygon></g></g><g transform="translate(442.0 237.46153846153845)"><g clip-path="url(#i1)"><polygon points="0,0 141.818518,0 141.818518,35.8076923 0,35.8076923 0,0" stroke="none" fill="#FFFFFF"></polygon></g></g><g transform="translate(76.0 0.0)"><g clip-path="url(#i2)"><polygon points="0,0 872.878463,0 872.878463,253.355112 0,253.355112 0,0" stroke="none" fill="#FFFFFF"></polygon></g></g><g transform="translate(0.0 49.0)"><g clip-path="url(#i0)"><polygon points="0,0 1024,0 1024,441 0,441 0,0" stroke="none" fill="#FFFFFF"></polygon></g></g></g></svg>